ply
format ascii 1.0
comment Created by Blender 2.90.0 - www.blender.org
element vertex 72
property float x
property float y
property float z
property float nx
property float ny
property float nz
property float s
property float t
element face 72
property list uchar uint vertex_indices
end_header
0.475944 0.323617 -0.011277 0.692801 0.399060 -0.600604 0.512867 1.000000
0.237840 0.413927 0.014538 0.329264 0.707633 0.625111 0.645157 0.862985
0.475745 0.323617 0.019247 0.715842 0.421277 0.556780 0.654239 1.000000
-0.000038 0.565833 0.005823 -0.003449 0.848262 0.529527 0.623079 0.715300
0.238032 0.413927 -0.014829 0.303293 0.566820 -0.765954 0.509146 0.862985
0.000133 0.565833 -0.020389 0.004120 0.774560 -0.632466 0.501680 0.715300
0.329670 -0.220598 0.016963 0.626148 -0.497482 0.600330 0.207291 0.008676
0.000455 -0.128560 0.071427 -0.006348 -0.047151 0.998840 0.174156 0.193005
0.001360 -0.222762 0.064084 -0.005371 -0.104099 0.994537 0.128937 0.176101
0.379110 -0.130276 -0.011155 0.678182 -0.252724 -0.690023 0.158105 0.738584
0.329670 -0.220598 0.016963 0.626148 -0.497482 0.600330 0.009229 0.699968
0.329887 -0.219139 -0.016260 0.582232 -0.393689 -0.711325 0.162762 0.690840
-0.329758 -0.219139 -0.020578 -0.573382 -0.393750 -0.718436 0.706951 0.009488
0.002375 -0.130276 0.001884 0.006409 0.040407 -0.999146 0.669923 0.194478
0.004614 -0.219139 -0.002884 0.005554 0.063997 -0.997925 0.626676 0.180028
-0.329975 -0.220598 0.012645 -0.633778 -0.497452 0.592303 0.293429 0.799954
-0.378931 -0.130276 -0.016117 -0.669271 -0.252358 -0.698813 0.442302 0.761364
-0.329758 -0.219139 -0.020578 -0.573382 -0.393750 -0.718436 0.446962 0.809082
0.441939 0.100540 0.027372 0.727012 -0.141423 0.671865 0.389509 0.007664
-0.000403 0.323617 0.061397 -0.006500 0.139714 0.990143 0.388003 0.271081
-0.000017 0.102460 0.073061 -0.006348 0.015992 0.999847 0.284006 0.233104
0.442153 0.099246 -0.005387 0.704886 -0.153996 -0.692373 0.157943 0.848521
0.475745 0.323617 0.019247 0.715842 0.421277 0.556780 0.037450 0.958887
0.441939 0.100540 0.027372 0.727012 -0.141423 0.671865 0.006809 0.860389
-0.442062 0.099246 -0.011175 -0.695822 -0.153966 -0.701498 0.886141 0.007756
0.000093 0.323617 0.001114 0.006531 -0.059267 -0.998199 0.885759 0.271812
0.001210 0.099246 0.007231 0.006378 -0.000275 -0.999969 0.779721 0.233839
-0.475956 0.323617 0.013018 -0.723075 0.421308 0.547380 0.321650 0.541053
-0.442062 0.099246 -0.011175 -0.695822 -0.153966 -0.701498 0.442141 0.651422
-0.442277 0.100540 0.021584 -0.735710 -0.141453 0.662343 0.291008 0.639554
0.000036 -0.483838 -0.005493 -0.003357 -0.896359 0.443251 0.324691 0.979608
-0.244017 -0.307661 -0.025726 -0.459120 -0.499832 -0.734367 0.452705 0.863882
0.000231 -0.480737 -0.035296 0.004944 -0.728904 -0.684561 0.462584 0.985916
0.000231 -0.480737 -0.035296 0.004944 -0.728904 -0.684561 0.501680 0.131766
0.006546 -0.307661 -0.008581 0.003662 0.108249 -0.994110 0.583559 0.165439
0.244332 -0.307661 -0.022529 0.468062 -0.499435 -0.728996 0.526472 0.286717
0.244332 -0.307661 -0.022529 0.468062 -0.499435 -0.728996 0.168508 0.636052
0.000036 -0.483838 -0.005493 -0.003357 -0.896359 0.443251 0.040491 0.520292
0.000231 -0.480737 -0.035296 0.004944 -0.728904 -0.684561 0.178384 0.513984
0.000036 -0.483838 -0.005493 -0.003357 -0.896359 0.443251 0.000000 0.130421
0.244124 -0.308104 0.009352 0.517106 -0.627979 0.581561 0.145172 0.037260
0.002216 -0.308761 0.055048 -0.003143 -0.214362 0.976745 0.087456 0.160587
-0.237818 0.413927 -0.017944 -0.293252 0.566851 -0.769829 0.509146 0.620240
-0.238010 0.413927 0.011423 -0.337413 0.707633 0.620746 0.645157 0.620240
0.442153 0.099246 -0.005387 0.704886 -0.153996 -0.692373 0.673861 0.458733
-0.329975 -0.220598 0.012645 -0.633778 -0.497452 0.592303 0.049707 0.345400
0.237840 0.413927 0.014538 0.329264 0.707633 0.625111 0.487345 0.165037
-0.000038 0.565833 0.005823 -0.003449 0.848262 0.529527 0.501680 0.312290
-0.442277 0.100540 0.021584 -0.735710 -0.141453 0.662343 0.178278 0.459023
-0.244225 -0.308104 0.006155 -0.523606 -0.627857 0.575823 0.028509 0.286544
0.329887 -0.219139 -0.016260 0.582232 -0.393689 -0.711325 0.548585 0.345928
-0.244017 -0.307661 -0.025726 -0.459120 -0.499832 -0.734367 0.643714 0.037644
-0.475756 0.323617 -0.017506 -0.684835 0.399091 -0.609638 0.512867 0.514511
0.475745 0.323617 0.019247 0.715842 0.421277 0.556780 0.501680 0.028177
-0.238010 0.413927 0.011423 -0.337413 0.707633 0.620746 0.373669 0.407940
-0.475956 0.323617 0.013018 -0.723075 0.421308 0.547380 0.274327 0.513984
0.238032 0.413927 -0.014829 0.303293 0.566820 -0.765954 0.871261 0.408703
0.475944 0.323617 -0.011277 0.692801 0.399060 -0.600604 0.771518 0.514511
0.000133 0.565833 -0.020389 0.004120 0.774560 -0.632466 1.000000 0.313468
-0.237818 0.413927 -0.017944 -0.293252 0.566851 -0.769829 0.985502 0.166005
-0.475756 0.323617 -0.017506 -0.684835 0.399091 -0.609638 1.000000 0.029114
-0.379156 -0.129585 0.018140 -0.712363 -0.296274 0.636189 0.083391 0.386952
0.379110 -0.130276 -0.011155 0.678182 -0.252724 -0.690023 0.579478 0.386625
-0.379156 -0.129585 0.018140 -0.712363 -0.296274 0.636189 0.284197 0.749647
-0.378931 -0.130276 -0.016117 -0.669271 -0.252358 -0.698813 0.761466 0.000000
0.378886 -0.129585 0.023102 0.704093 -0.296548 0.645192 0.000000 0.750300
0.378886 -0.129585 0.023102 0.704093 -0.296548 0.645192 0.264480 0.000000
-0.244225 -0.308104 0.006155 -0.523606 -0.627857 0.575823 0.305465 0.854118
0.244124 -0.308104 0.009352 0.517106 -0.627979 0.581561 0.021267 0.645815
0.475944 0.323617 -0.011277 0.692801 0.399060 -0.600604 0.178384 0.949094
-0.475756 0.323617 -0.017506 -0.684835 0.399091 -0.609638 0.462584 0.550846
-0.475956 0.323617 0.013018 -0.723075 0.421308 0.547380 0.654239 0.514511
3 0 1 2
3 3 4 5
3 6 7 8
3 9 10 11
3 12 13 14
3 15 16 17
3 18 19 20
3 21 22 23
3 24 25 26
3 27 28 29
3 30 31 32
3 33 34 35
3 36 37 38
3 39 40 41
3 3 42 43
3 25 44 26
3 7 45 8
3 19 46 47
3 19 48 20
3 41 49 39
3 13 50 14
3 34 33 51
3 52 43 42
3 46 19 53
3 54 19 47
3 55 19 54
3 56 57 25
3 58 56 25
3 58 25 59
3 59 25 60
3 20 61 7
3 26 62 13
3 63 28 16
3 64 26 13
3 21 65 9
3 66 20 7
3 14 35 34
3 8 49 41
3 67 17 31
3 51 14 34
3 11 68 36
3 40 8 41
3 0 4 1
3 3 1 4
3 6 66 7
3 9 65 10
3 12 64 13
3 15 63 16
3 18 53 19
3 21 69 22
3 24 60 25
3 27 70 28
3 30 67 31
3 36 68 37
3 3 5 42
3 25 57 44
3 7 61 45
3 19 55 48
3 13 62 50
3 52 71 43
3 20 48 61
3 26 44 62
3 63 29 28
3 64 24 26
3 21 23 65
3 66 18 20
3 14 50 35
3 8 45 49
3 67 15 17
3 51 12 14
3 11 10 68
3 40 6 8
